<?xml version="1.0" encoding="utf-8"?>
<svg viewBox="0 0 16 16" fill="#000000" xmlns="http://www.w3.org/2000/svg">
  <g id="SVGRepo_iconCarrier" transform="matrix(0.031249999999999997, 0, 0, 0.031249999999999997, -0.0000010000001253729351, 0.000015000001662990314)">
    <path d="M255.969,0c-23.748,0-42.999,19.251-42.999,42.999c-0.001,14.411,7.095,27.157,17.977,34.959h50.044 c10.881-7.803,17.977-20.548,17.977-34.959C298.968,19.251,279.717,0,255.969,0z"/>
    <path d="M449.551,94.91h-10.988c0-20.553,0-16.112,0-36.795c0-3.805-3.085-6.889-6.889-6.889h-18.821 c-3.805,0-6.889,3.085-6.889,6.889c0,20.683,0,16.239,0,36.795h-24.059c1.003-10.538-6.758-19.765-17.038-20.853 c-10.483-1.101-19.944,6.524-21.055,17.028l-0.404,3.826H168.654l-0.404-3.826c-1.108-10.483-10.563-18.142-21.055-17.028 c-10.264,1.085-18.043,10.299-17.039,20.852h-24.118c0-20.553,0-16.112,0-36.795c0-3.805-3.085-6.889-6.889-6.889H80.327 c-3.805,0-6.889,3.085-6.889,6.889c0,20.683,0,16.239,0,36.795H62.451c-7.202,0-13.039,5.838-13.039,13.039 c0,7.202,5.838,13.039,13.039,13.039h10.987c0,20.553,0,16.112,0,36.795c0,3.805,3.085,6.889,6.889,6.889h18.821 c3.805,0,6.889-3.085,6.889-6.889c0-20.683,0-16.239,0-36.795h26.866c0.825,7.803,6.66,62.973,7.523,71.133 c1.696,16.052,21.799,23.28,33.134,10.92c0.105-0.115,0.223-0.216,0.326-0.335l26.91-30.796l0.01,315.191 c0,13.75,11.147,24.896,24.896,24.896c13.749,0,24.896-11.147,24.896-24.896v-199h10.75v199.003 c0,13.75,11.146,24.896,24.896,24.896c13.75,0,24.896-11.147,24.896-24.896c0-3.235-0.451-315.847-0.451-315.847l27.484,31.453 c0.103,0.118,0.218,0.218,0.324,0.333c11.03,12.029,31.386,5.604,33.135-10.918c0.862-8.158,6.698-63.331,7.523-71.133h26.807 c0,20.553,0,16.112,0,36.795c0,3.805,3.085,6.889,6.889,6.889h18.821c3.805,0,6.889-3.085,6.889-6.889c0-20.683,0-16.239,0-36.795 h10.988c7.203,0,13.039-5.838,13.039-13.039C462.589,100.75,456.752,94.91,449.551,94.91z M338.856,137.942 c-4.705,0-153.328,0-165.651,0l-1.793-16.953h169.236L338.856,137.942z"/>
  </g>
</svg>