<?xml version="1.0" encoding="utf-8"?>
<svg viewBox="0 0 16 16" fill="#000000" xmlns="http://www.w3.org/2000/svg">
  <g transform="matrix(0.03177099674940109, 0, 0, 0.03177099674940109, 0.03181799921122419, 0.03177099722282595)">
    <path d="M 473.232 53.552 C 468.189 53.552 463.399 54.898 459.203 57.239 C 455.338 45.497 444.122 36.765 431.264 36.765 C 415.316 36.765 401.887 50.195 401.887 66.142 L 401.887 78.732 L 99.719 78.732 L 99.719 66.142 C 99.719 50.194 86.289 36.765 70.342 36.765 C 57.484 36.765 46.268 45.498 42.403 57.239 C 38.207 54.898 33.418 53.552 28.374 53.552 C 12.426 53.552 -1.003 66.982 -1.003 82.93 L -1.003 124.897 C -1.003 140.845 12.427 154.274 28.374 154.274 C 33.417 154.274 38.207 152.928 42.403 150.587 C 46.268 162.329 57.484 171.062 70.342 171.062 C 86.29 171.062 99.719 157.631 99.719 141.684 L 99.719 129.094 L 116.506 129.094 L 116.506 154.274 C 116.506 159.31 119.863 162.667 124.9 162.667 L 133.293 162.667 L 133.293 456.442 C 133.293 461.478 136.65 464.835 141.686 464.835 C 145.883 464.835 150.079 461.478 150.079 456.442 L 150.079 162.668 L 158.472 162.668 C 162.669 162.668 166.865 159.311 166.865 154.275 L 166.865 129.095 L 334.736 129.095 L 334.736 154.275 C 334.736 159.311 338.093 162.668 343.129 162.668 L 351.522 162.668 L 351.522 456.443 C 351.522 461.479 354.879 464.836 359.915 464.836 C 364.112 464.836 368.308 461.479 368.308 456.443 L 368.308 162.668 L 376.702 162.668 C 380.899 162.668 385.095 159.311 385.095 154.275 L 385.095 129.095 L 401.882 129.095 L 401.882 141.685 C 401.882 157.633 415.312 171.063 431.259 171.063 C 444.117 171.063 455.333 162.329 459.198 150.588 C 463.394 152.929 468.183 154.275 473.227 154.275 C 489.175 154.275 502.604 140.845 502.604 124.898 L 502.604 82.93 C 502.61 66.982 489.18 53.552 473.232 53.552 Z M 28.374 137.488 C 21.659 137.488 15.784 131.613 15.784 124.898 L 15.784 82.93 C 15.784 76.214 21.659 70.339 28.374 70.339 C 35.089 70.339 40.965 76.214 40.965 82.93 L 40.965 124.897 C 40.965 131.612 35.089 137.488 28.374 137.488 Z M 82.932 141.685 C 82.932 148.4 77.057 154.275 70.342 154.275 C 63.627 154.275 57.752 148.4 57.752 141.685 L 57.752 124.898 L 57.752 82.93 L 57.752 66.143 C 57.752 59.428 63.627 53.553 70.342 53.553 C 77.057 53.553 82.932 59.428 82.932 66.143 L 82.932 87.128 L 82.932 120.702 L 82.932 141.685 Z M 150.081 145.881 L 133.294 145.881 L 133.294 129.094 L 150.081 129.094 L 150.081 145.881 Z M 368.312 145.881 L 351.525 145.881 L 351.525 129.094 L 368.312 129.094 L 368.312 145.881 Z M 376.707 112.307 L 343.132 112.307 L 158.474 112.307 L 124.9 112.307 L 99.719 112.307 L 99.719 95.521 L 401.887 95.521 L 401.887 112.308 L 376.707 112.308 L 376.707 112.307 Z M 443.854 141.685 C 443.854 148.4 437.979 154.275 431.264 154.275 C 424.549 154.275 418.674 148.4 418.674 141.685 L 418.674 120.701 L 418.674 87.127 L 418.674 66.143 C 418.674 59.428 424.549 53.553 431.264 53.553 C 437.979 53.553 443.854 59.428 443.854 66.143 L 443.854 82.931 L 443.854 124.898 L 443.854 141.685 Z M 485.823 124.898 C 485.823 131.613 479.948 137.488 473.233 137.488 C 466.518 137.488 460.643 131.613 460.643 124.898 L 460.643 82.93 C 460.643 76.214 466.518 70.339 473.233 70.339 C 479.948 70.339 485.823 76.214 485.823 82.93 L 485.823 124.898 Z"/>
    <path d="M 309.561 288.575 L 192.051 288.575 C 177.782 288.575 166.871 299.486 166.871 313.755 C 166.871 325.057 173.72 334.247 183.658 337.583 L 183.658 456.446 C 183.658 461.482 187.015 464.839 192.051 464.839 C 197.087 464.839 200.444 461.482 200.444 456.446 L 200.444 338.936 L 301.167 338.936 L 301.167 456.445 C 301.167 461.481 304.524 464.838 309.56 464.838 C 313.757 464.838 317.953 461.481 317.953 456.445 L 317.953 337.474 C 327.531 334.046 334.74 324.931 334.74 313.755 C 334.742 299.486 323.83 288.575 309.561 288.575 Z M 309.561 322.148 L 192.051 322.148 C 187.015 322.148 183.658 318.791 183.658 313.755 C 183.658 308.719 187.015 305.362 192.051 305.362 L 309.561 305.362 C 314.597 305.362 317.954 308.719 317.954 313.755 C 317.954 318.791 314.597 322.148 309.561 322.148 Z"/>
  </g>
</svg>