<?xml version="1.0" encoding="utf-8"?>
<svg viewBox="0 0 16 16" fill="#000000" xmlns="http://www.w3.org/2000/svg">
  <g transform="matrix(0.031249999999999997, 0, 0, 0.031249999999999997, 0.00002800000261871105, -8.881784197001252e-16)">
    <path d="M 428.356 177.998 L 392.745 152.93 C 383.769 146.61 373.222 143.272 362.244 143.272 L 316.943 143.272 L 316.943 70.773 C 316.943 66.033 313.101 62.191 308.361 62.191 L 264.581 62.191 L 264.581 49.165 C 264.581 44.425 260.739 40.583 255.999 40.583 C 251.259 40.583 247.416 44.425 247.416 49.165 L 247.416 62.191 L 203.636 62.191 C 198.896 62.191 195.053 66.032 195.053 70.772 L 195.053 143.27 L 149.764 143.27 C 138.788 143.27 128.244 146.609 119.269 152.925 L 83.643 177.997 C 79.767 180.724 78.835 186.079 81.564 189.955 C 83.236 192.329 85.891 193.598 88.59 193.598 C 90.297 193.598 92.021 193.091 93.523 192.035 L 129.149 166.963 C 135.216 162.693 142.345 160.436 149.766 160.436 L 195.054 160.436 L 195.054 310.253 L 187.055 310.253 C 174.142 310.253 163.636 320.759 163.636 333.672 C 163.636 346.585 174.142 357.091 187.055 357.091 L 195.054 357.091 L 195.054 426.325 L 157.383 426.325 C 137.251 426.325 120.874 442.702 120.874 462.834 C 120.874 467.574 124.717 471.416 129.456 471.416 L 382.544 471.416 C 387.284 471.416 391.126 467.574 391.126 462.834 C 391.126 442.702 374.748 426.325 354.617 426.325 L 316.945 426.325 L 316.945 357.091 L 324.945 357.091 C 337.858 357.091 348.364 346.585 348.364 333.672 C 348.364 320.759 337.858 310.253 324.945 310.253 L 316.945 310.253 L 316.945 160.435 L 362.246 160.435 C 369.666 160.435 376.798 162.693 382.866 166.966 L 418.477 192.034 C 422.354 194.762 427.706 193.832 430.436 189.957 C 433.161 186.08 432.232 180.726 428.356 177.998 Z M 264.581 79.355 L 299.78 79.355 L 299.78 143.27 L 264.581 143.27 L 264.581 79.355 Z M 212.218 79.355 L 247.416 79.355 L 247.416 143.27 L 212.218 143.27 L 212.218 79.355 Z M 212.218 160.435 L 299.779 160.435 L 299.779 310.252 L 212.218 310.252 L 212.218 160.435 Z M 354.616 443.488 C 362.202 443.488 368.782 447.877 371.95 454.251 L 140.047 454.251 C 143.215 447.877 149.795 443.488 157.381 443.488 L 354.616 443.488 Z M 299.779 426.323 L 212.218 426.323 L 212.218 357.089 L 299.779 357.089 L 299.779 426.323 Z M 324.943 327.417 C 328.392 327.417 331.198 330.222 331.198 333.671 C 331.198 337.119 328.392 339.924 324.943 339.924 L 187.054 339.924 C 183.605 339.924 180.8 337.119 180.8 333.671 C 180.8 330.222 183.605 327.417 187.054 327.417 L 324.943 327.417 Z"/>
  </g>
</svg>