<svg width="28" height="28" viewBox="0 0 28 28" fill="none" xmlns="http://www.w3.org/2000/svg">
<path d="M16.2498 6.10938C17.6677 6.10938 18.8045 4.97266 18.8045 3.55469C18.8045 2.13672 17.6677 1 16.2498 1C14.8318 1 13.6951 2.13672 13.6951 3.55469C13.6951 4.97266 14.8318 6.10938 16.2498 6.10938ZM12.242 16.3047L16.7302 18.8242L13.8357 21.3086C13.2146 21.8359 13.2263 22.5273 13.6013 22.9492C13.988 23.3828 14.6795 23.4883 15.324 22.9375L19.367 19.4922C19.9177 19.0234 19.8357 18.0156 19.1677 17.582L14.7732 14.6992L15.6404 11.6641C15.7576 11.2305 16.2615 11.1719 16.5193 11.5469L17.8084 13.4336C18.113 13.8672 18.6638 14.043 19.1677 13.8086L22.8826 12.1562C23.5388 11.8633 23.7849 11.2891 23.5037 10.6914C23.2107 10.1055 22.6482 9.92969 21.992 10.2227L19.0505 11.5234L17.0232 8.72266C15.9685 7.26953 14.656 6.67188 12.4998 6.83594L8.38649 7.12891C7.73024 7.17578 7.28492 7.59766 7.19117 8.27734L6.64039 12.4492C6.53492 13.1758 6.89821 13.6797 7.54274 13.75C8.19899 13.8086 8.62086 13.4336 8.71461 12.707L9.21852 9.29688L10.8709 9.17969C11.2341 9.14453 11.5974 9.40234 11.4685 9.85938L10.5076 13.2109C9.94508 15.1914 11.2341 15.7305 12.242 16.3047ZM4.40211 26.4297C4.83571 26.793 5.50367 26.8398 6.10133 26.2656L9.89821 22.5039C10.2146 22.1875 10.2849 22.1172 10.4841 21.625L12.0779 17.5L11.6912 17.2891C10.8006 16.8086 10.1795 16.3164 9.75758 15.7891L8.36305 20.7227L4.42555 24.6484C3.80446 25.2578 3.92164 26.0078 4.40211 26.4297Z" fill="black" fill-opacity="0.85"/>
</svg>
