<svg width="28" height="29" viewBox="0 0 28 29" fill="none" xmlns="http://www.w3.org/2000/svg">
<path d="M13.9922 5.12109C15.3984 5.12109 16.5586 3.98438 16.5586 2.54297C16.5586 1.13672 15.3984 0 13.9922 0C12.5742 0 11.4375 1.13672 11.4375 2.54297C11.4375 3.98438 12.5742 5.12109 13.9922 5.12109ZM11.4258 13.8867H16.582V11.0859C16.582 10.8867 16.8984 10.793 17.0156 11.0391L20.2852 17.6836C20.5781 18.2695 21.2812 18.5156 21.8672 18.2109C22.4297 17.9297 22.6758 17.2148 22.3828 16.6289L18.082 7.92188C17.5664 6.89062 16.6055 6.28125 15.3984 6.28125H12.5977C11.3906 6.28125 10.4297 6.89062 9.91406 7.92188L5.61328 16.6289C5.32031 17.2148 5.56641 17.9297 6.12891 18.2109C6.71484 18.5156 7.40625 18.2695 7.69922 17.6836L10.9922 11.0391C11.1094 10.793 11.4258 10.8633 11.4258 11.0742V13.8867ZM9.24609 28.3359C9.80859 28.4531 10.4531 28.1602 10.6289 27.3633L11.7305 22.3242L13.9922 18.1523L16.2656 22.3242L17.3672 27.3633C17.543 28.1953 18.2461 28.4766 18.8203 28.3242C19.3711 28.1719 19.8164 27.6445 19.6406 26.8477L18.5273 21.6562C18.5156 21.5508 18.5039 21.4805 18.457 21.375L17.0742 17.4492H10.9336L9.52734 21.375C9.49219 21.4805 9.48047 21.5508 9.45703 21.6562L8.34375 26.8477C8.16797 27.6797 8.67188 28.2188 9.24609 28.3359ZM2.40234 19.6055H3.08203C3.55078 19.6055 3.86719 19.2773 3.86719 18.8086V12.5156C3.86719 12.0469 3.55078 11.7305 3.08203 11.7305H2.40234C1.93359 11.7305 1.61719 12.0469 1.61719 12.5156V18.8086C1.61719 19.2773 1.93359 19.6055 2.40234 19.6055ZM24.8906 19.6055H25.582C26.0508 19.6055 26.3555 19.2773 26.3555 18.8086V12.5156C26.3555 12.0469 26.0508 11.7305 25.582 11.7305H24.8906C24.4219 11.7305 24.1055 12.0469 24.1055 12.5156V18.8086C24.1055 19.2773 24.4219 19.6055 24.8906 19.6055ZM0.65625 16.3125H27.3281C27.6914 16.3125 27.9727 16.0312 27.9727 15.668C27.9727 15.3047 27.6914 15.0117 27.3281 15.0117H0.65625C0.28125 15.0117 0 15.3047 0 15.668C0 16.0312 0.28125 16.3125 0.65625 16.3125Z" fill="black" fill-opacity="0.85"/>
</svg>
